<svg width="220" height="35" viewBox="0 0 220 35" fill="none" xmlns="http://www.w3.org/2000/svg">
<g clip-path="url(#clip0_179_1934)">
<path d="M58.2191 14.3437C57.4325 14.5869 56.7029 14.98 56.0719 15.5002C55.4371 16.0297 54.8881 16.6506 54.4436 17.3415C53.9466 18.1166 53.544 18.946 53.2442 19.8129L68.2434 19.7763L67.0253 24.1589H52.0261C51.908 24.6033 51.8117 25.0415 51.7402 25.4737C51.6712 25.8852 51.6359 26.3015 51.6346 26.7185C51.607 27.1202 51.6491 27.5236 51.7589 27.9115C51.8643 28.2849 52.0278 28.64 52.2436 28.9646C52.4243 29.2563 52.6532 29.5165 52.921 29.7346C53.1917 29.9476 53.512 30.0919 53.8532 30.1546C54.2249 30.2276 54.6005 30.2804 54.9781 30.3129C55.3727 30.3494 55.7611 30.3646 56.1434 30.3646H56.4541L65.3318 30.3281L64.151 34.7137H55.034C54.2945 34.7137 53.5767 34.6833 52.8869 34.6255C52.2126 34.5679 51.543 34.4662 50.8826 34.3211C50.2584 34.2132 49.6581 34 49.1083 33.6911C48.555 33.3701 48.0463 32.9804 47.595 32.5315C47.0511 31.9777 46.6086 31.3363 46.2868 30.6355C45.961 29.9164 45.7735 29.1446 45.7337 28.3589C45.6841 27.5235 45.6904 26.6858 45.7524 25.8511C45.8138 24.9796 45.9626 24.1162 46.1967 23.2733C46.2216 23.1813 46.2403 23.0877 46.2527 22.9933C46.264 22.8989 46.2816 22.8054 46.3055 22.7133C46.3303 22.6433 46.3521 22.5611 46.377 22.4668C46.4018 22.3724 46.4236 22.2811 46.4484 22.1868C46.4714 22.0973 46.5016 22.0098 46.5385 21.925C46.5741 21.8397 46.6042 21.7523 46.6287 21.6633C46.6498 21.5723 46.6799 21.4837 46.7188 21.3985C46.7552 21.3127 46.7843 21.2242 46.8058 21.1337C47.3944 19.3163 48.2128 17.5782 49.2419 15.9598C50.1127 14.5904 51.2138 13.3751 52.4984 12.3654C53.7585 11.4106 55.1912 10.6971 56.7213 10.2624C58.4559 9.77816 60.253 9.54238 62.0566 9.56242L71.04 9.52588L69.825 13.9085H60.9566C60.0273 13.9221 59.105 14.0687 58.2191 14.3437Z" fill="#00558C"/>
<path d="M72.9106 13.9666L74.1287 9.58398H96.3214L95.1064 13.9666H86.7663L81.1078 34.7231H75.5146L81.17 13.9666H72.9106Z" fill="#00558C"/>
<path d="M112.971 9.50195L117.054 34.6776H111.038L110.289 28.6819H99.1027L95.1999 34.6776H89.5259L107.238 9.50195H112.971ZM102.126 24.1928H109.786L108.543 14.5176L102.126 24.1928Z" fill="#00558C"/>
<path d="M125.456 34.6256C124.704 34.5687 123.979 34.4815 123.281 34.3638C122.625 34.2517 122.002 33.9992 121.457 33.6243C120.873 33.2135 120.375 32.6969 119.99 32.1025C119.621 31.594 119.348 31.0251 119.182 30.4225C119.026 29.8154 118.971 29.1873 119.021 28.563C119.07 27.9096 119.154 27.2492 119.272 26.5816C119.39 25.9151 119.546 25.2334 119.739 24.5303L123.856 9.52295H129.259L125.465 23.3373C125.162 24.3534 124.94 25.3914 124.803 26.4416C124.697 27.1914 124.69 27.9516 124.785 28.7029C124.907 29.3319 125.343 29.7996 126.093 30.106C126.843 30.4124 127.935 30.5635 129.368 30.5595L135.738 30.526L134.629 34.6986H127.793C126.989 34.7087 126.21 34.6844 125.456 34.6256Z" fill="#00558C"/>
<path d="M146.26 34.6622C145.508 34.6054 144.783 34.5181 144.085 34.4004C143.428 34.2878 142.804 34.0353 142.257 33.6609C141.674 33.2493 141.177 32.7329 140.791 32.1391C140.423 31.6304 140.15 31.0615 139.986 30.4591C139.829 29.852 139.775 29.2239 139.824 28.5996C139.872 27.9352 139.956 27.2738 140.076 26.6183C140.194 25.9528 140.349 25.269 140.539 24.567L144.656 9.55957H150.063L146.278 23.4013C145.975 24.4174 145.754 25.4554 145.616 26.5057C145.508 27.2553 145.502 28.0157 145.598 28.767C145.716 29.398 146.151 29.8656 146.903 30.17C147.655 30.4743 148.747 30.6255 150.178 30.6235L156.551 30.59L155.442 34.7626H148.606C147.795 34.7626 147.012 34.7322 146.26 34.6622Z" fill="#00558C"/>
<path d="M166.799 24.6186C166.518 25.5247 166.349 26.4607 166.295 27.4064C166.25 28.0811 166.357 28.7573 166.606 29.3877C166.751 29.6652 166.95 29.9119 167.193 30.1135C167.436 30.3151 167.717 30.4677 168.02 30.5625C168.92 30.8594 169.867 30.9955 170.817 30.9642C171.835 30.9854 172.85 30.8499 173.824 30.5625C174.59 30.3336 175.289 29.9311 175.866 29.3877C176.426 28.7963 176.896 28.129 177.261 27.4064C177.703 26.5309 178.051 25.613 178.299 24.6672L182.45 9.55334H187.857L183.706 24.7707C183.656 24.9351 183.616 25.0933 183.578 25.2455C183.541 25.3977 183.501 25.5499 183.454 25.6838C183.408 25.8177 183.358 25.9881 183.311 26.1373C183.265 26.2864 183.215 26.4173 183.168 26.5603C183.025 27.0046 182.858 27.449 182.684 27.8903C182.51 28.3316 182.308 28.7668 182.093 29.1899C181.853 29.6086 181.59 30.0149 181.307 30.4073C181.012 30.8138 180.689 31.2001 180.341 31.5638C179.83 32.0663 179.265 32.5132 178.656 32.8968C178.048 33.2778 177.4 33.5951 176.724 33.8433C176.27 34.0077 175.823 34.1538 175.381 34.2816C174.953 34.4106 174.517 34.5122 174.076 34.5859C173.858 34.6353 173.637 34.6719 173.414 34.6955L172.749 34.7625C172.496 34.8077 172.239 34.8371 171.982 34.8507C171.73 34.8507 171.475 34.8812 171.211 34.9025H170.835C170.709 34.9019 170.583 34.9142 170.459 34.939H169.027C168.909 34.9148 168.789 34.9026 168.669 34.9025H168.312C168.073 34.8812 167.834 34.8629 167.594 34.8507C167.354 34.8376 167.115 34.8082 166.88 34.7625C166.256 34.7422 165.637 34.6482 165.037 34.4825C164.457 34.3186 163.889 34.1152 163.337 33.8738C162.309 33.381 161.477 32.5673 160.972 31.5607C160.786 31.1956 160.654 30.8061 160.581 30.4042C160.508 30.0026 160.483 29.5941 160.506 29.1868C160.508 28.7515 160.544 28.317 160.615 27.8873C160.687 27.4459 160.783 27.0016 160.901 26.5573C160.926 26.4142 160.954 26.2772 160.991 26.1342C161.028 25.9912 161.069 25.8299 161.115 25.6807C161.14 25.6113 161.159 25.54 161.171 25.4677C161.184 25.3855 161.201 25.3042 161.224 25.2242C161.246 25.1553 161.264 25.0852 161.277 25.0142C161.289 24.9428 161.308 24.8725 161.333 24.8042L165.522 9.55029H170.888L166.799 24.6186Z" fill="#00558C"/>
<path d="M199.09 9.51074L200.333 28.8308L212.185 9.51074H220.096L213.223 34.6864H207.94L213.701 15.0864L201.781 34.6864H196.055L194.653 14.8794L189.784 34.6894H184.271L191.154 9.51074H199.09Z" fill="#00558C"/>
<path d="M20.3718 0.0517578L22.0932 26.6061L38.3819 0.0517578H49.2576L39.8082 34.6622H32.5246L40.4483 7.71523L24.0633 34.6622H16.1893L14.2689 7.43522L7.5788 34.6622H0L9.44943 0.0608786L20.3718 0.0517578Z" fill="#00558C"/>
</g>
<defs>
<clipPath id="clip0_179_1934">
<rect width="220" height="35" fill="white"/>
</clipPath>
</defs>
</svg>
