<svg width="92" height="80" viewBox="0 0 92 80" fill="none" xmlns="http://www.w3.org/2000/svg">
<path d="M83.4439 0H29.3617V2.00245H83.4439C86.8796 2.00245 89.6918 4.45776 89.7007 7.44588V72.5541C89.7007 75.5422 86.8796 77.9931 83.4439 77.9976H45.7796V80H83.4439C88.1575 80 91.9956 76.6567 92 72.5541V7.44588C91.9956 3.34332 88.1575 0.00444 83.4439 0Z" fill="#00558C"/>
<path d="M27.3414 68.1165H27.2876H27.2293L27.0454 68.0622C25.7579 67.6961 24.8696 66.6339 24.7171 64.6088C24.7171 64.4325 24.7171 64.2563 24.6947 64.0664L24.4681 48.395L2.08942 62.0278C-1.05082 63.4743 -0.40484 67.5605 2.38998 68.1481H27.4043L27.3414 68.1165Z" fill="#00558C"/>
<path d="M49.9149 33.5803L67.5319 51.3581L67.4692 28.5222C67.4692 25.3445 65.2749 24.0083 63.1163 25.0277L49.9194 33.5803H49.9149Z" fill="#00558C"/>
<path d="M50.8936 34.5679L29.7329 12.9249C27.57 10.6425 24.4681 12.2023 24.4681 15.7052V48.8888L50.8936 34.5679Z" fill="#00558C"/>
<path d="M78.2143 61.8917L67.5319 51.3579L67.3202 64.173C67.3189 64.4738 67.2843 64.7736 67.217 65.0673C67.1894 65.1971 67.155 65.3255 67.1137 65.4519C66.9269 66.076 66.5751 66.6428 66.0929 67.0972C65.6107 67.5515 65.0144 67.8778 64.3621 68.0443L64.2589 68.0745C64.1108 68.1048 63.9537 68.1307 63.81 68.148H63.617H77.357C80.6921 68.1653 81.3744 64.3717 78.2143 61.8917Z" fill="#00558C"/>
<path d="M49.9149 33.5803L24.4681 48.3951L24.4681 64.1782C24.4681 64.3643 24.4681 64.5371 24.4902 64.7099C24.6406 66.6948 25.5165 67.736 26.786 68.0949L26.9674 68.148H27.0249H27.078H27.14H63.8249H64.0151C64.17 68.148 64.3248 68.1037 64.4575 68.0727L64.5592 68.0417C65.202 67.871 65.7897 67.5364 66.2649 67.0705C66.7401 66.6046 67.0867 66.0233 67.2709 65.3833C67.3116 65.2537 67.3455 65.1221 67.3726 64.989C67.439 64.6878 67.4731 64.3803 67.4744 64.0719L67.5319 51.3581L49.9149 33.5803Z" fill="#173A64"/>
</svg>
